<?xml version="1.0" standalone="no"?><!DOCTYPE svg PUBLIC "-//W3C//DTD SVG 1.1//EN" "http://www.w3.org/Graphics/SVG/1.1/DTD/svg11.dtd"><svg t="1616483162853" class="icon" viewBox="0 0 1024 1024" version="1.1" xmlns="http://www.w3.org/2000/svg" p-id="3692" xmlns:xlink="http://www.w3.org/1999/xlink" width="64" height="64"><defs><style type="text/css"></style></defs><path d="M 511.5 721.7 c 113 0 204.6 -91.6 204.6 -204.6 V 300.8 c 0 -113 -91.6 -204.6 -204.6 -204.6 S 306.8 187.8 306.9 300.8 v 216.3 c 0 113 91.6 204.6 204.6 204.6 Z" fill="#868686" p-id="3693"></path><path d="M 819.4 547.6 c -28.3 -5.2 -55.4 13.6 -60.6 41.9 c -17.1 94.1 -116.4 195.7 -247 195.7 c -128.8 0 -232.3 -100.9 -248 -195 c -4.8 -28.4 -31.6 -47.5 -59.9 -42.8 c -28.4 4.8 -47.6 31.6 -42.8 59.9 c 20.7 123.8 139.8 256.6 303.2 278.7 v 57.4 c 0 26 21.1 47.2 47.2 47.2 c 26 0 47.2 -21.2 47.2 -47.2 v -57.3 c 162.6 -21.4 279.6 -151.7 302.6 -278 c 5.1 -28.2 -13.7 -55.3 -41.9 -60.5 Z" fill="#868686" p-id="3694"></path></svg>