<?xml version="1.0" standalone="no"?><!DOCTYPE svg PUBLIC "-//W3C//DTD SVG 1.1//EN" "http://www.w3.org/Graphics/SVG/1.1/DTD/svg11.dtd"><svg t="1608710807378" class="icon" viewBox="0 0 1072 1024" version="1.1" xmlns="http://www.w3.org/2000/svg" p-id="26037" xmlns:xlink="http://www.w3.org/1999/xlink" width="67" height="64"><defs><style type="text/css"></style></defs><path d="M818.362182 513.629091v359.563636c0 56.506182-46.033455 102.725818-102.260364 102.725818H306.874182a102.818909 102.818909 0 0 1-102.260364-102.725818v-359.563636H102.306909A102.818909 102.818909 0 0 1 0 410.903273V102.725818C0 46.219636 46.033455 0 102.306909 0H920.669091c56.32 0 102.306909 46.219636 102.306909 102.725818v308.177455a102.818909 102.818909 0 0 1-102.306909 102.725818h-102.306909z m-265.960727 143.825454v-41.099636h122.740363c20.48 0 40.96-20.526545 40.96-41.099636 0-20.526545-20.48-41.053091-40.96-41.053091h-107.380363l107.380363-107.892364a40.448 40.448 0 0 0 0-56.506182 40.029091 40.029091 0 0 0-56.226909 0l-102.306909 102.725819L414.254545 369.803636a40.029091 40.029091 0 0 0-56.273454 0 40.448 40.448 0 0 0 0 56.506182L465.454545 534.202182H358.027636c-20.48 0-40.913455 20.526545-40.913454 41.053091 0 20.573091 20.48 41.099636 40.96 41.099636h122.740363v41.099636H358.027636c-20.48 0-40.913455 20.573091-40.913454 41.099637s20.48 41.099636 40.96 41.099636h122.740363v41.053091c0 20.573091 20.48 41.099636 40.913455 41.099636 20.48 0 40.913455-20.526545 40.913455-41.099636v-41.053091h122.740363c20.48 0 40.96-20.573091 40.96-41.099636s-20.48-41.099636-40.96-41.099637h-132.980363z m265.960727-349.27709v205.451636h51.2V395.496727c30.673455-15.406545 51.106909-51.339636 51.106909-87.319272V205.451636a102.818909 102.818909 0 0 0-102.306909-102.725818H204.613818a102.818909 102.818909 0 0 0-102.306909 102.725818v102.725819c0 35.979636 20.48 71.912727 51.153455 87.319272v118.132364h51.153454V308.177455h-51.2V205.451636h716.101818v102.725819h-51.153454z" p-id="26038"></path></svg>