<?xml version="1.0" standalone="no"?><!DOCTYPE svg PUBLIC "-//W3C//DTD SVG 1.1//EN" "http://www.w3.org/Graphics/SVG/1.1/DTD/svg11.dtd"><svg t="1608710814873" class="icon" viewBox="0 0 1089 1024" version="1.1" xmlns="http://www.w3.org/2000/svg" p-id="26446" xmlns:xlink="http://www.w3.org/1999/xlink" width="68.0625" height="64"><defs><style type="text/css"></style></defs><path d="M892.68834 687.082213a214.778553 214.778553 0 0 0 87.824341-173.382809c5.141787-115.777362-84.970213-213.885277-200.747575-219.027064-115.777362-5.12-213.885277 84.992-219.027063 200.769362v18.257702c0 68.433702 32.52834 132.902128 87.846127 173.382809A352.386723 352.386723 0 0 0 455.788936 977.375319c0 19.957106 10.24 35.927149 29.652426 35.927149h569.213276c19.390638 0 29.630638-15.970043 29.630639-35.948936a356.809532 356.809532 0 0 0-191.618724-290.293106z" p-id="26447"></path><path d="M551.042723 668.824511c-50.764255-63.313702-72.987234-144.296851-62.747234-224.713532a281.403915 281.403915 0 0 1 109.524426-184.211064c75.863149-52.485447 172.249872-65.579574 258.941276-34.227745 76.429617 29.085957 78.695489 59.893106 87.824341 59.893107 19.390638 0 34.794213-15.970043 34.794213-35.360681V190.85617A183.317787 183.317787 0 0 0 804.275745 0.39217H175.757617A183.317787 183.317787 0 0 0 0.675404 190.85617v618.256341a183.317787 183.317787 0 0 0 175.082213 190.485787h139.743319c17.102979 2.28766 33.073021-10.24 35.360681-27.364766v-3.420596a199.636426 199.636426 0 0 1 21.11183-78.717276 463.741277 463.741277 0 0 1 75.274893-122.052086 463.327319 463.327319 0 0 1 103.794383-99.240851zM245.912511 153.229617h254.387744c12.549447 0.566468 22.811234 9.695319 23.965958 22.244766 2.83234 15.403574-7.429447 29.652426-22.266553 32.506553H247.633702a23.965957 23.965957 0 0 1-26.798298-21.65651v-4.008852a25.708936 25.708936 0 0 1 24.510639-27.364765h0.566468v-1.721192zM150.114043 146.954894a34.467404 34.467404 0 0 1 30.24068 51.918978 34.467404 34.467404 0 0 1-30.24068 17.102979c-18.82417 0-34.205957-15.403574-34.205958-34.205957 0-19.978894 14.815319-34.816 34.205958-34.816zM349.140426 644.902128H139.830468c-17.102979 1.699404-31.940085-10.261787-33.639489-26.798298-1.721191-17.124766 10.24-31.961872 26.798298-33.661277h216.151149c17.124766-1.721191 31.940085 10.261787 33.661276 26.798298 1.699404 16.558298-10.261787 31.940085-26.798298 33.661277h-6.862978z m70.154893-172.816341H139.830468c-19.390638 0-35.360681-10.850043-34.794213-30.807149 0-17.102979 14.270638-30.785362 31.373617-30.785361h283.451915a31.308255 31.308255 0 0 1 34.227745 27.931234v2.287659c0 17.102979-13.682383 30.807149-30.218894 30.807149-1.721191 1.132936-2.854128 1.132936-4.575319 0.566468z" p-id="26448"></path></svg>