<?xml version="1.0" standalone="no"?><!DOCTYPE svg PUBLIC "-//W3C//DTD SVG 1.1//EN" "http://www.w3.org/Graphics/SVG/1.1/DTD/svg11.dtd"><svg t="1607407016567" class="icon" viewBox="0 0 1024 1024" version="1.1" xmlns="http://www.w3.org/2000/svg" p-id="5504" xmlns:xlink="http://www.w3.org/1999/xlink" width="64" height="64"><defs><style type="text/css"></style></defs><path d="M1002.59595 981.268751h-30.248731V382.893749a21.339999 21.339999 0 0 0-21.355359-21.355359h-206.6314a21.319519 21.319519 0 0 0-21.334879 21.355359v598.375002h-60.543543V124.658259a21.386079 21.386079 0 0 0-21.375838-21.375839H434.49016a21.380959 21.380959 0 0 0-21.355359 21.375839v856.610492H352.570778V512.003814c0-11.775911-9.558968-21.355359-21.355359-21.355358H124.650579A21.370719 21.370719 0 0 0 103.27474 512.003814v469.264937H42.710718V21.363039a21.350239 21.350239 0 1 0-42.710718 0v981.261071A21.355359 21.355359 0 0 0 21.355359 1023.999949h981.281551a21.314399 21.314399 0 0 0 21.355359-21.375839 21.386079 21.386079 0 0 0-21.396319-21.355359z" p-id="5505"></path></svg>