<?xml version="1.0" standalone="no"?><!DOCTYPE svg PUBLIC "-//W3C//DTD SVG 1.1//EN" "http://www.w3.org/Graphics/SVG/1.1/DTD/svg11.dtd"><svg t="1608710810038" class="icon" viewBox="0 0 1024 1024" version="1.1" xmlns="http://www.w3.org/2000/svg" p-id="26173" xmlns:xlink="http://www.w3.org/1999/xlink" width="64" height="64"><defs><style type="text/css"></style></defs><path d="M889.469539 549.150471h-248.988832a82.875818 82.875818 0 0 0-82.755359 82.815589v248.988832c0.120459 45.774435 37.041154 82.815589 82.755359 82.815589h248.988832a82.875818 82.875818 0 0 0 82.755359-82.815589v-248.988832c0-45.593746-37.041154-82.815589-82.755359-82.815589m-497.495828 0H143.045108A82.875818 82.875818 0 0 0 60.229519 631.96606v248.988832c0.120459 45.774435 37.041154 82.815589 82.815589 82.815589h248.928603a82.875818 82.875818 0 0 0 82.815589-82.815589v-248.988832a82.936048 82.936048 0 0 0-82.815589-82.815589m607.715848-348.789146L823.518216 24.310441a82.936048 82.936048 0 0 0-117.086186 0l-24.392955 24.392955-151.657929 151.657929a82.514441 82.514441 0 0 0-24.212267 58.422634c-0.180689 22.044004 8.552592 43.124336 24.212267 58.663552l24.392955 24.392955 127.385433 127.445662 24.453185 24.392956a82.936048 82.936048 0 0 0 117.025956 0l151.778388-151.778389 24.453185-24.453184a83.116736 83.116736 0 0 0-0.180689-117.086186M391.973711 51.594413H143.045108A82.875818 82.875818 0 0 0 60.229519 134.410002v248.988832c0.120459 45.774435 37.041154 82.815589 82.815589 82.815589h248.928603a82.875818 82.875818 0 0 0 82.815589-82.815589V134.410002A82.875818 82.875818 0 0 0 391.973711 51.594413" p-id="26174"></path></svg>