<?xml version="1.0" standalone="no"?><!DOCTYPE svg PUBLIC "-//W3C//DTD SVG 1.1//EN" "http://www.w3.org/Graphics/SVG/1.1/DTD/svg11.dtd"><svg t="1608710812684" class="icon" viewBox="0 0 1058 1024" version="1.1" xmlns="http://www.w3.org/2000/svg" p-id="26309" xmlns:xlink="http://www.w3.org/1999/xlink" width="66.125" height="64"><defs><style type="text/css"></style></defs><path d="M968.704 0H90.112C40.96 0 0 40.96 0 90.112v843.776C0 983.04 40.96 1024 90.112 1024h878.592c49.152 0 90.112-40.96 90.112-90.112V90.112c0-49.152-40.96-90.112-90.112-90.112z m-139.264 563.2L546.816 806.912c-10.24 8.192-24.576 8.192-34.816 0L229.376 563.2c-18.432-16.384-8.192-47.104 16.384-47.104h69.632c14.336 0 26.624-12.288 26.624-26.624V235.52c0-14.336 12.288-26.624 26.624-26.624h323.584c14.336 0 26.624 12.288 26.624 26.624V491.52c0 14.336 12.288 26.624 26.624 26.624h69.632c22.528 0 34.816 30.72 14.336 45.056z" p-id="26310"></path><path d="M649.216 335.872c0-4.096-4.096-10.24-12.288-14.336-4.096-2.048-6.144-4.096-8.192-4.096-2.048-2.048-6.144-2.048-8.192-2.048-2.048 0-6.144 2.048-8.192 4.096-2.048 2.048-6.144 6.144-8.192 12.288-10.24 18.432-20.48 36.864-32.768 55.296-10.24 18.432-20.48 36.864-32.768 55.296L471.04 329.728c-6.144-8.192-10.24-14.336-16.384-14.336-6.144 0-12.288 0-18.432 6.144-6.144 4.096-10.24 8.192-10.24 14.336-2.048 6.144 0 12.288 4.096 20.48 8.192 14.336 18.432 28.672 26.624 43.008 8.192 14.336 18.432 28.672 26.624 43.008H450.56c-16.384 0-22.528 8.192-22.528 24.576 0 16.384 8.192 24.576 24.576 24.576H512v20.48h-61.44c-16.384 0-22.528 8.192-22.528 24.576 0 16.384 8.192 24.576 24.576 24.576H512v51.2c0 12.288 2.048 18.432 6.144 22.528 4.096 4.096 10.24 6.144 20.48 6.144s18.432-2.048 20.48-6.144c4.096-4.096 4.096-10.24 4.096-22.528v-51.2h61.44c16.384 0 24.576-8.192 24.576-24.576 0-16.384-8.192-24.576-24.576-24.576h-61.44v-22.528h61.44c16.384 0 24.576-8.192 24.576-24.576 0-16.384-8.192-24.576-24.576-24.576h-32.768l51.2-86.016c4.096-8.192 6.144-14.336 6.144-18.432z" p-id="26311"></path></svg>