<?xml version="1.0" standalone="no"?><!DOCTYPE svg PUBLIC "-//W3C//DTD SVG 1.1//EN" "http://www.w3.org/Graphics/SVG/1.1/DTD/svg11.dtd"><svg t="1608710795525" class="icon" viewBox="0 0 1024 1024" version="1.1" xmlns="http://www.w3.org/2000/svg" p-id="25487" xmlns:xlink="http://www.w3.org/1999/xlink" width="64" height="64"><defs><style type="text/css"></style></defs><path d="M688.381247 429.832258c-162.551742 0-294.32843 131.776688-294.32843 294.333936 0 162.551742 131.776688 294.32843 294.32843 294.32843S982.709677 886.717935 982.709677 724.166194c0-162.557247-131.776688-294.333935-294.32843-294.333936z m130.510452 405.509505c-6.408258 11.258495-19.274323 16.031656-28.716043 10.663914l-133.362237-75.676903c-8.318624-4.718108-11.241978-15.695828-7.503828-25.924817v-181.732473a23.441892 23.441892 0 1 1 46.883785 0v176.083957l117.121377 66.466408c9.469247 5.378753 11.985204 18.866925 5.576946 30.119914z" p-id="25488"></path><path d="M326.325677 721.556645c0-204.271484 165.59071-369.867699 369.867699-369.867699 57.911054 0 112.695054 13.328516 161.49471 37.051183V127.686194c0-43.156645-34.986667-78.137806-78.143312-78.137807H128.36886C85.21772 49.548387 50.231054 84.529548 50.231054 127.686194v708.475871c0 43.156645 34.981161 78.137806 78.137806 78.137806h252.11871c-34.342538-56.127312-54.161892-122.109247-54.161893-192.743226z m-138.047311-552.189247h489.681204a28.649978 28.649978 0 0 1 0 57.299957H188.278366a28.649978 28.649978 0 0 1 0-57.299957z m0 135.443269h328.192a28.655484 28.655484 0 0 1 0 57.305462H188.278366a28.655484 28.655484 0 0 1 0-57.305462z m-28.649979 174.509419a28.655484 28.655484 0 0 1 28.649979-28.649978h166.702795a28.649978 28.649978 0 0 1 0 57.299957h-166.702795a28.649978 28.649978 0 0 1-28.649979-28.649979z" p-id="25489"></path></svg>