<?xml version="1.0" standalone="no"?><!DOCTYPE svg PUBLIC "-//W3C//DTD SVG 1.1//EN" "http://www.w3.org/Graphics/SVG/1.1/DTD/svg11.dtd"><svg t="1608710792993" class="icon" viewBox="0 0 1324 1024" version="1.1" xmlns="http://www.w3.org/2000/svg" p-id="25351" xmlns:xlink="http://www.w3.org/1999/xlink" width="82.75" height="64"><defs><style type="text/css"></style></defs><path d="M1164.288 80.896h-950.272c-54.784 0-86.528 45.568-86.528 100.864v71.68h1122.816v-71.68c0.512-55.296-31.232-100.864-86.016-100.864zM128 843.264c0 10.752 1.536 20.992 3.584 30.208 34.304-311.808 298.496-274.944 298.496-274.944v-129.536l216.064 172.544-216.064 216.064v-129.536s-158.72-43.52-283.648 180.224c14.848 21.504 37.376 35.328 67.584 35.328h950.272c54.784 0 86.528-45.568 86.528-100.864v-460.288H128v460.8z" p-id="25352"></path></svg>