<?xml version="1.0" standalone="no"?><!DOCTYPE svg PUBLIC "-//W3C//DTD SVG 1.1//EN" "http://www.w3.org/Graphics/SVG/1.1/DTD/svg11.dtd"><svg t="1610509675253" class="icon" viewBox="0 0 1025 1024" version="1.1" xmlns="http://www.w3.org/2000/svg" p-id="2795" xmlns:xlink="http://www.w3.org/1999/xlink" width="64.0625" height="64"><defs><style type="text/css"></style></defs><path d="M988.964571 628.321524c-58.416762-33.01181-303.250286 145.115429-348.964571 148.675048 0 0-85.333333 22.991238-198.095238-42.520381s-199.631238-126.488381-199.631238-126.488381-77.238857-51.126857-167.619048 9.142857C41.618286 639.195429 0 661.333333 0 661.333333l0 324.583619C0 985.916952 73.142857 902.095238 166.107429 902.095238s315.440762 102.107429 315.440762 102.107429 80.774095 38.107429 149.333333 0l379.440762-280.380952C1029.071238 713.142857 1036.824381 655.408762 988.964571 628.321524z" p-id="2796"></path><path d="M585.142857 682.666667c188.489143 0 341.333333-152.81981 341.333333-341.333333 0-188.513524-152.84419-341.333333-341.333333-341.333333-188.513524 0-341.333333 152.81981-341.333333 341.333333C243.809524 529.846857 396.629333 682.666667 585.142857 682.666667zM472.722286 144.969143l113.347048 150.723048 113.39581-150.723048 61.366857 0-143.993905 191.390476 103.740952 0c5.193143 0 9.386667 4.242286 9.386667 9.508571l0 18.358857c0 5.241905-4.193524 9.48419-9.386667 9.48419l-112.103619 0 0 46.445714 112.103619 0c5.193143 0 9.386667 4.242286 9.386667 9.508571l0 18.383238c0 5.241905-4.193524 9.508571-9.386667 9.508571l-112.103619 0 0 70.753524c0 5.144381-4.461714 9.337905-9.923048 9.337905l-26.86781 0c-5.485714 0-9.923048-4.193524-9.923048-9.337905l0-70.753524-112.103619 0c-5.168762 0-9.386667-4.266667-9.386667-9.508571l0-18.383238c0-5.266286 4.217905-9.508571 9.386667-9.508571l112.103619 0 0-46.445714-112.103619 0c-5.168762 0-9.386667-4.242286-9.386667-9.48419l0-18.358857c0-5.266286 4.217905-9.508571 9.386667-9.508571l105.667048 0-143.969524-191.390476L472.722286 144.969143z" p-id="2797"></path></svg>