<?xml version="1.0" standalone="no"?><!DOCTYPE svg PUBLIC "-//W3C//DTD SVG 1.1//EN" "http://www.w3.org/Graphics/SVG/1.1/DTD/svg11.dtd"><svg t="1608710805063" class="icon" viewBox="0 0 1024 1024" version="1.1" xmlns="http://www.w3.org/2000/svg" p-id="25901" xmlns:xlink="http://www.w3.org/1999/xlink" width="64" height="64"><defs><style type="text/css"></style></defs><path d="M882.2 65h-739c-42.5 0-77.1 34.5-77.1 77.1v739.1c0 42.5 34.5 77.1 77.1 77.1h739c42.6 0 77.1-34.6 77.1-77.2v-739c0-42.5-34.5-77.1-77.1-77.1zM389 787.4c-77-32.9-137.7-95.2-168.7-173.1a314.7 314.7 0 0 1 4.2-241.6c-27.7-25.6-33.3-67.4-13.2-99.4 20.1-32 60.1-45.2 95.3-31.4s55.5 50.7 48.5 87.8c-7 37.1-39.5 64-77.3 63.9h-5c-14.6 32.9-22.1 68.6-22.1 104.7 0.1 101.3 58.6 193.4 150.1 236.7-7.4 16.5-11.5 34.3-11.8 52.4z m394.5-129.5C741 730 671.4 782.2 590.4 802.8c-8 37.5-41.7 63.7-79.9 62.2-38.2-1.4-69.9-30.2-74.9-68.1-5.1-37.8 17.8-73.9 54.3-85.3 36.4-11.6 75.9 4.9 93.4 38.9 135.6-38 216.7-176.2 184.1-313.1 17.5-2.7 34.4-9.1 49.4-18.8 21.2 81.1 9.3 167.2-33.3 239.3z m28.2-296.2c-22.9 30.8-64.5 40.6-98.6 23.3-34.2-17.3-50.9-56.5-39.7-93.1-81.1-63.4-191.8-73.3-282.8-25.1-6.5-16.1-16.1-30.8-28.3-42.9l-1.1-1c109.7-60.3 244.7-49.9 343.7 26.7 31.8-21.3 74.3-16.6 100.6 11.1 26.4 27.6 29 70.3 6.2 101z" p-id="25902"></path></svg>