<?xml version="1.0" standalone="no"?><!DOCTYPE svg PUBLIC "-//W3C//DTD SVG 1.1//EN" "http://www.w3.org/Graphics/SVG/1.1/DTD/svg11.dtd"><svg t="1608710789842" class="icon" viewBox="0 0 1070 1024" version="1.1" xmlns="http://www.w3.org/2000/svg" p-id="25212" xmlns:xlink="http://www.w3.org/1999/xlink" width="66.875" height="64"><defs><style type="text/css"></style></defs><path d="M407.022742 1024l-10.431761-3.681798c-156.01618-54.613333-248.214532-110.300524-299.146067-180.561498-48.937228-67.653034-55.687191-142.823071-63.511011-229.805543l-0.613633-7.517004C25.496449 515.298277 8.621543 187.158052 7.854502 173.351311L6.167011 138.681049H39.456599c110.147116 0 247.294082 1.380674 343.481049-111.220974L407.022742 0 431.107835 27.153258C527.294801 139.601498 664.441768 138.681049 774.588884 138.681049h33.289588l-1.534082 34.670262c-0.767041 13.806742-17.488539 341.333333-25.465768 428.622622l-0.613633 7.82382c-7.82382 86.982472-14.573783 162.305918-63.511011 229.958951-50.778127 70.260974-143.129888 126.101573-299.146068 180.561498l-10.585168 3.681798zM60.626936 192.680749c4.755655 90.66427 17.795356 334.123146 24.39191 406.685244l0.767042 7.82382c15.494232 171.970637 23.318052 259.259925 321.390262 365.571835 298.07221-106.158502 305.89603-193.601199 321.390262-365.571835l0.767041-7.82382c6.596554-72.562097 19.636255-316.020974 24.39191-406.685244-107.999401-0.920449-241.464569-11.045393-346.702621-112.908464C301.938097 181.635356 168.472929 191.7603 60.626936 192.680749z m0 0" p-id="25213"></path><path d="M110.944839 241.157753c4.142022 77.471161 15.187416 285.646142 20.863521 347.623071l0.613633 6.596554c13.193109 146.965094 19.943071 221.674906 274.754157 312.492585 254.657678-90.817678 261.40764-165.374082 274.600749-312.492585l0.613633-6.596554c5.676105-61.976929 16.721498-270.15191 20.86352-347.623071-92.198352-0.920449-206.180674-9.511311-296.23131-96.493783-89.897228 86.982472-203.879551 95.573333-296.077903 96.493783z m0 0" p-id="25214"></path><path d="M550.91967 665.484944H283.529109c-19.329438 0-34.977079-17.181723-34.977079-38.198652V417.270412c0-5.982921 4.448839-10.891985 9.971536-10.891985s9.971536 4.909064 9.971535 10.891985v210.01588c0 9.051086 6.749963 16.414682 15.034008 16.414682h267.390561c5.522697 0 9.971536 4.909064 9.971536 10.891985 0.153408 5.982921-4.448839 10.891985-9.971536 10.891985z m0 0" p-id="25215"></path><path d="M342.284464 625.905618h-25.772584c-12.272659 0-22.090787-9.971536-22.090786-22.090787v-90.664269c0-12.272659 9.971536-22.090787 22.090786-22.090787h25.772584c12.272659 0 22.090787 9.971536 22.090787 22.090787v90.664269c0.153408 12.119251-9.818127 22.090787-22.090787 22.090787z m-25.772584-113.215281c-0.153408 0-0.306816 0.153408-0.306816 0.306817v90.664269c0 0.153408 0.153408 0.306816 0.306816 0.306817h25.772584c0.153408 0 0.306816-0.153408 0.306817-0.306817v-90.664269c0-0.153408-0.153408-0.306816-0.306817-0.306817h-25.772584z m0 0M426.198772 625.905618H400.426187c-12.272659 0-22.090787-9.971536-22.090786-22.090787V380.299026c0-12.272659 9.971536-22.090787 22.090786-22.090786h25.772585c12.272659 0 22.090787 9.971536 22.090786 22.090786v223.515805c0 12.119251-9.818127 22.090787-22.090786 22.090787zM400.426187 379.99221c-0.153408 0-0.306816 0.153408-0.306816 0.306816v223.515805c0 0.153408 0.153408 0.306816 0.306816 0.306817h25.772585c0.153408 0 0.306816-0.153408 0.306816-0.306817V380.299026c0-0.153408-0.153408-0.306816-0.306816-0.306816H400.426187z m0 0M512.874427 625.905618h-25.772584c-12.272659 0-22.090787-9.971536-22.090787-22.090787v-136.379925c0-12.272659 9.971536-22.090787 22.090787-22.090786h25.772584c12.272659 0 22.090787 9.971536 22.090786 22.090786v136.379925c0 12.119251-9.971536 22.090787-22.090786 22.090787z m-25.772584-158.777528c-0.153408 0-0.306816 0.153408-0.306817 0.306816v136.379925c0 0.153408 0.153408 0.306816 0.306817 0.306817h25.772584c0.153408 0 0.306816-0.153408 0.306816-0.306817v-136.379925c0-0.153408-0.153408-0.306816-0.306816-0.306816h-25.772584z m0 0" p-id="25216"></path></svg>