<?xml version="1.0" standalone="no"?><!DOCTYPE svg PUBLIC "-//W3C//DTD SVG 1.1//EN" "http://www.w3.org/Graphics/SVG/1.1/DTD/svg11.dtd"><svg t="1622184234701" class="icon" viewBox="0 0 1024 1024" version="1.1" xmlns="http://www.w3.org/2000/svg" p-id="4178" xmlns:xlink="http://www.w3.org/1999/xlink" width="64" height="64"><defs><style type="text/css"></style></defs><path d="M588.8 921.6a51.2 51.2 0 1 1 0 102.4H435.2a51.2 51.2 0 1 1 0-102.4h153.6zM512 0a64 64 0 0 1 63.04 52.928 348.864 348.864 0 0 1 284.672 315.84L891.008 768 940.8 768a51.2 51.2 0 1 1 0 102.4H83.2a51.2 51.2 0 1 1 0-102.4l49.792-0.064 31.296-399.168A348.864 348.864 0 0 1 449.024 52.928 63.936 63.936 0 0 1 512 0zM344.128 426.24a44.8 44.8 0 0 0-46.464 36.224l-0.768 6.08-9.152 166.144 0.128 6.08a44.8 44.8 0 0 0 88.64 4.864l0.704-6.016 9.152-166.144-0.064-6.08a44.8 44.8 0 0 0-42.24-41.152z" p-id="4179"></path></svg>